<?xml version="1.0" encoding="UTF-8" standalone="no"?>
<svg width="1065px" height="200px" viewBox="0 0 1065 200" version="1.1" xmlns="http://www.w3.org/2000/svg" xmlns:xlink="http://www.w3.org/1999/xlink" xmlns:sketch="http://www.bohemiancoding.com/sketch/ns">
    <!-- Generator: Sketch 3.1 (8751) - http://www.bohemiancoding.com/sketch -->
    <title>Blog Title</title>
    <desc>Created with Sketch.</desc>
    <defs></defs>
    <g id="Page-1" stroke="none" stroke-width="1" fill="none" fill-rule="evenodd" sketch:type="MSPage">
        <g id="Blog-Title" sketch:type="MSArtboardGroup">
            <g id="SOLDA-+-BLOG" sketch:type="MSLayerGroup" transform="translate(55.000000, 0.000000)">
                <path d="M77,136.4375 C77,114.715278 56.7282378,104.972222 43.9766454,100.020833 C31.0615711,94.9097222 26.1571125,90.4375 26.1571125,84.5277778 C26.1571125,80.2152778 30.5711253,76.3819444 36.4564756,76.3819444 C46.4288747,76.3819444 58.3630573,85.1666667 59.8343949,85.9652778 C61.3057325,87.0833333 64.2484076,85.6458333 65.3927813,83.8888889 L73.7303609,71.5902778 C74.3842887,70.4722222 74.7112527,67.5972222 72.7494692,66.4791667 C67.8450106,62.9652778 54.7664544,54.5 37.7643312,54.5 C12.5881104,54.5 1.13686838e-13,70.4722222 1.13686838e-13,86.2847222 C1.13686838e-13,105.451389 17.656051,116.152778 31.7154989,121.583333 C42.8322718,125.895833 48.5541401,131.006944 48.5541401,137.715278 C48.5541401,143.305556 43.8131635,147.298611 37.2738854,147.298611 C26.4840764,147.298611 14.7133758,138.833333 14.059448,138.513889 C12.9150743,137.715278 9.8089172,137.395833 8.50106157,139.472222 L0.817409766,152.729167 C-0.49044586,154.965278 1.13686838e-13,155.604167 1.63481953,157.201389 C5.39490446,160.875 17.1656051,169.5 38.418259,169.5 C62.4501062,169.5 77,152.888889 77,136.4375 L77,136.4375 Z M145.420028,169.5 C177.408901,169.5 203,144.104167 203,112.159722 C203,80.2152778 177.408901,54.5 145.420028,54.5 C113.431154,54.5 88,80.2152778 88,112.159722 C88,144.104167 113.431154,169.5 145.420028,169.5 L145.420028,169.5 Z M226.120773,169.5 L287.879227,169.5 C289.68599,169.5 291,168.047143 291,166.432857 L291,148.837143 C291,147.222857 289.68599,145.77 287.879227,145.77 L248.78744,145.77 L248.78744,59.5671429 C248.78744,57.9528571 247.309179,56.5 245.666667,56.5 L226.120773,56.5 C224.31401,56.5 223,57.9528571 223,59.5671429 L223,166.432857 C223,168.047143 224.31401,169.5 226.120773,169.5 L226.120773,169.5 Z M308.936378,169.5 L348.74062,169.5 C380.225122,169.5 406,144.155714 406,112.838571 C406,81.8442857 380.225122,56.5 348.74062,56.5 L308.936378,56.5 C307.305057,56.5 306,57.9528571 306,59.5671429 L306,166.432857 C306,168.047143 307.305057,169.5 308.936378,169.5 L308.936378,169.5 Z M331,80.5 L346.835052,80.5 C365.474227,80.5 379,94.5641975 379,112.420988 C379,130.435802 365.474227,144.5 346.835052,144.5 L331,144.5 L331,80.5 L331,80.5 Z M516.675969,163.361972 L466.057825,56.2507042 C465.572667,55.2957746 464.440632,54.5 463.308597,54.5 L461.691403,54.5 C460.559368,54.5 459.427333,55.2957746 458.942175,56.2507042 L408.324031,163.361972 C407.353715,165.430986 408.64747,167.5 411.073259,167.5 L513.926741,167.5 C516.35253,167.5 517.646285,165.430986 516.675969,163.361972 L516.675969,163.361972 Z M462.837233,103.5 L463,103.5 L483,146.5 L443,146.5 L462.837233,103.5 L462.837233,103.5 Z M155.224193,69.9196901 C149.999095,70.6540306 111.328807,106.364494 111.948294,110.772372 C112.567781,115.180249 143.048358,125.33536 143.048358,125.33536 C143.048358,125.33536 121.200108,147.555598 127.69826,152.554758 C142.141799,150.524849 175.761466,124.260199 176.204315,115.814836 C176.647164,107.369472 148.967962,100.121726 148.967962,100.121726 C148.967962,100.121726 160.449291,69.1853497 155.224193,69.9196901 L155.224193,69.9196901 Z" id="SOLDA" fill="#000000" sketch:type="MSShapeGroup"></path>
                <text id="BLOG" sketch:type="MSTextLayer" font-family="Brandon Grotesque" font-size="161" font-weight="686" fill="#CBCBCB">
                    <tspan x="534" y="169">BLOG</tspan>
                </text>
            </g>
        </g>
    </g>
</svg>